<svg width="346" height="233" viewBox="0 0 346 233" fill="none" xmlns="http://www.w3.org/2000/svg">
<g clip-path="url(#clip0_22_1058)">
<path d="M107.25 233L109.29 205.59C110.33 167.48 102.97 169.81 79.42 146.54C65.14 132.43 52.59 114.79 50.35 94.27L61.68 109.88C82.15 137.49 131.73 132.5 151.61 107.15C183.9 66.01 110.64 48.3 112.18 12.9C113.25 -11.56 139.01 5.66001 151.19 8.93001C158.79 10.97 174.59 10.5 179.68 14.39C185.88 19.14 183.52 28.44 178.65 33.36C165.11 47.03 147.32 38.5 134.72 28.39C134.43 34.95 143.19 40.63 148.29 43.78C171.37 58.01 202.29 66.58 227.14 79.74C260.5 97.4 297.03 120.96 300.99 162.13C318.07 159.41 327.27 143.86 328.82 127.57C329.2 123.55 328.17 107.96 329.39 106.19C332.3 101.96 336.39 108.81 337.73 110.93C354.22 137.05 342.99 173.63 316.18 187.8C312.41 189.79 300.52 192.94 298.92 194.51C297.43 195.96 294.56 204.38 292.8 207.36C287.68 216.03 272.21 233 261.54 233H186.15C187.33 214.81 204.37 208.95 220.1 208.04C213.68 196.3 212.19 164.34 222.65 155.2C224.5 153.58 228.36 152.89 230.78 151.35C250.16 138.98 246.01 118.45 235.5 101.34C227.66 88.57 223.34 87.24 221.06 104.21C209.8 103.13 200.79 105.52 191.64 111.99C186.91 108.41 181.85 103.43 175.3 104.38C171.2 106.96 177.74 130 179.41 134.46C180.72 137.97 183.5 140.96 183.79 144.2C182.23 150.04 155.93 164.72 149.72 171.14C135.33 186.01 133.72 213.6 136.23 233.01H107.27L107.25 233Z" fill="#1E1E1E"/>
<path d="M46.02 21.71C53.91 30.49 43.17 48.35 40.41 57.89C36.27 72.18 38.88 93.65 17.9 92.26C9.21996 91.69 1.66996 84.34 0.489956 75.71C-2.26004 55.46 6.92996 44.95 20.85 32.35C26.21 27.5 39.25 14.17 46.02 21.71Z" fill="#1E1E1E"/>
<path d="M94.2701 233H69.3101C71.4001 215.72 71.9601 198.01 71.3501 180.56C71.2701 178.18 68.2001 152.21 69.8101 152.15C77.1501 162.07 89.8301 168.35 94.5501 180.33C98.7201 197.52 96.0701 215.59 94.2701 233.01V233Z" fill="#1E1E1E"/>
<path d="M118.99 80.55C126.28 79.48 133.59 79.31 137.4 86.58C142.6 96.49 130.51 109.06 120.75 110.26C90.78 113.94 90.87 84.67 118.99 80.55Z" fill="#1E1E1E"/>
<path d="M82.05 67.08C77.49 71.63 65.48 65.38 72.28 57.81C79.08 50.24 87.37 61.77 82.05 67.08Z" fill="#1E1E1E"/>
<path d="M105.96 45.57C115.53 42.74 118.24 54.25 112.22 56.81C102.39 60.98 98.88 47.67 105.96 45.57Z" fill="#1E1E1E"/>
<path d="M203.61 122.55C208.57 122.55 210.4 131.29 203.61 131.29C196.82 131.29 198.65 122.55 203.61 122.55Z" fill="#1E1E1E"/>
<path d="M226.78 116.4C235.45 113.8 233.26 126.86 226.34 123.48C222.81 121.76 223.51 117.39 226.78 116.4Z" fill="#1E1E1E"/>
<path d="M221.81 129.35C222.64 129.23 223.4 128.93 224.1 129.66C226.15 131.1 224.81 133.62 223.08 134.69C217.24 137.16 216.13 130.19 221.81 129.35Z" fill="#1E1E1E"/>
</g>
<defs>
<clipPath id="clip0_22_1058">
<rect width="345.43" height="233" fill="white"/>
</clipPath>
</defs>
</svg>
